# xmcd CD database file
#
# Track frame offsets:
#	150
#	13809
#	16619
#	18597
#	19137
#	22003
#	24880
#	40471
#	45498
#	47936
#	53051
#	54543
#	59080
#	60307
#	61638
#	63129
#	68361
#	69302
#	70327
#	79263
#	80138
#	86649
#	87748
#	88486
#	89255
#	95465
#	96515
#	97563
#	104333
#	107014
#	115025
#	122937
#	127266
#	133084
#	133605
#	134475
#	135233
#	136114
#	141984
#
# Disc length: 1948 seconds
#
# Revision: 0
# Processed by: cddbd v1.5.2PL0 Copyright (c) Steve Scherf et al.
# Submitted via: CDex 1.70beta2
#
DISCID=25079a27
DTITLE=Rich Delgrosso - Mandolin Blues: From Memphis To Maxwell Street
DYEAR=2007
DGENRE=Blues
TTITLE0=Scales
TTITLE1=12-Bar Blues in C ("Quick To the IV")
TTITLE2=8-Bar Blues in G ("Circle of Fifths")
TTITLE3=Back Beats
TTITLE4=Duet in G
TTITLE5=Duet in G (triplets)
TTITLE6=Dallas Rag
TTITLE7=Jackson Stomp
TTITLE8=Knox County Stomp
TTITLE9=State Street Rag
TTITLE10=Vine Street Drag Chords
TTITLE11=Vine Street Drag
TTITLE12=Vol Stephens Blues Performance Notes 1
TTITLE13=Vol Stephens Blues Performance Notes 2
TTITLE14=Vol Stephens Blues Performance Notes 3
TTITLE15=Vol Stephens Blues
TTITLE16=Will Weldon's Blues Performance Notes 1
TTITLE17=Will Weldon's Blues Performance Notes 2
TTITLE18=Will Weldon's Blues
TTITLE19=Eddie Dimmitt's Blues Performance Notes
TTITLE20=Will Weldon's Blues
TTITLE21=Charlie McCoy's Blues Performance Notes 1
TTITLE22=Charlie McCoy's Blues Performance Notes 2
TTITLE23=Charlie McCoy's Blues Performance Notes 3
TTITLE24=Charlie McCoy's Blues
TTITLE25=Betty And Dupree Performance Notes 1
TTITLE26=Betty And Dupree Performance Notes 2
TTITLE27=Betty And Dupree
TTITLE28=Howard Armstrong's Blues
TTITLE29=Yank Rachell's Blues
TTITLE30=Early This Morning
TTITLE31=Johnny Young's Blues
TTITLE32=Young's 8-Bar Blues
TTITLE33=Delgrosso's Blues Performance Notes 1
TTITLE34=Delgrosso's Blues Performance Notes 2
TTITLE35=Delgrosso's Blues Performance Notes 3
TTITLE36=Delgrosso's Blues Performance Notes 1
TTITLE37=Delgrosso's Blues
TTITLE38=End Notes
EXTD=YEAR: 2007
EXTT0=
EXTT1=
EXTT2=
EXTT3=
EXTT4=
EXTT5=
EXTT6=
EXTT7=
EXTT8=
EXTT9=
EXTT10=
EXTT11=
EXTT12=
EXTT13=
EXTT14=
EXTT15=
EXTT16=
EXTT17=
EXTT18=
EXTT19=
EXTT20=
EXTT21=
EXTT22=
EXTT23=
EXTT24=
EXTT25=
EXTT26=
EXTT27=
EXTT28=
EXTT29=
EXTT30=
EXTT31=
EXTT32=
EXTT33=
EXTT34=
EXTT35=
EXTT36=
EXTT37=
EXTT38=
PLAYORDER=
